<svg width="60" height="60" viewBox="0 0 60 60" fill="none" xmlns="http://www.w3.org/2000/svg">
<rect width="60" height="60" rx="30" fill="white"/>
<path d="M25.072 41.3598L39.472 18.6398H34.928L20.528 41.3598H25.072ZM38.48 41.6158C41.936 41.6158 44.784 38.7678 44.784 35.3118C44.784 31.8238 41.936 29.0078 38.48 29.0078C34.992 29.0078 32.176 31.8238 32.176 35.3118C32.176 38.7678 34.992 41.6158 38.48 41.6158ZM38.48 37.9038C37.04 37.9038 35.92 36.7198 35.92 35.3118C35.92 33.9038 37.04 32.7198 38.48 32.7198C39.92 32.7198 41.008 33.9038 41.008 35.3118C41.008 36.7198 39.92 37.9038 38.48 37.9038ZM21.52 30.9918C24.976 30.9918 27.824 28.1438 27.824 24.6878C27.824 21.1998 24.976 18.3838 21.52 18.3838C18.032 18.3838 15.216 21.1998 15.216 24.6878C15.216 28.1438 18.032 30.9918 21.52 30.9918ZM21.52 27.2798C20.08 27.2798 18.96 26.0958 18.96 24.6878C18.96 23.2798 20.08 22.0958 21.52 22.0958C22.96 22.0958 24.08 23.2798 24.08 24.6878C24.08 26.0958 22.96 27.2798 21.52 27.2798Z" fill="#CE2127"/>
</svg>
