<svg width="248" height="248" viewBox="0 0 248 248" fill="none" xmlns="http://www.w3.org/2000/svg">
<path fill-rule="evenodd" clip-rule="evenodd" d="M112.144 47.4965L104.578 50.7604C99.3622 38.5548 91.2868 27.7828 81.0337 19.353C75.0881 14.5228 68.486 10.5625 61.4252 7.5912L64.6315 0C72.4122 3.2732 79.6865 7.63884 86.2346 12.9652C97.5184 22.2287 106.405 34.073 112.144 47.4965ZM145.118 50.7603C150.33 38.5538 158.406 27.7823 168.662 19.3569C174.605 14.5244 181.206 10.564 188.267 7.59506L185.06 0.0038636C177.279 3.27546 170.004 7.64126 163.457 12.9691C152.172 22.2337 143.284 34.0795 137.543 47.5046L145.118 50.7603ZM173.163 43.7132C181.009 35.4415 190.372 28.7541 200.741 24.0139C214.321 17.8535 229.214 15.1493 244.092 16.1424L244.628 7.90007C228.387 6.82725 212.133 9.78613 197.313 16.5133C185.99 21.6941 175.766 28.9982 167.195 38.0301L173.163 43.7132ZM114.959 65.2767C114.945 65.892 114.788 66.4953 114.501 67.0393L34.0554 224.262L30.9646 235.76L46.9137 240.046L44.7707 248L4.95996 237.326L7.10297 229.372L23.0107 233.658L26.1016 222.119L35.0447 45.774C35.0851 45.1612 35.2569 44.5645 35.5487 44.0242C35.8401 43.4839 36.2444 43.0124 36.7344 42.6419C37.2314 42.2768 37.8042 42.0279 38.4109 41.9137C39.0171 41.8 39.641 41.8231 40.2374 41.9826L111.905 61.1872C112.496 61.3447 113.044 61.634 113.509 62.0337C113.973 62.4335 114.34 62.9329 114.583 63.4951C114.845 64.0518 114.974 64.6618 114.959 65.2767ZM104.857 67.8223L43.0398 51.2552L40.0313 110.27C42.0577 110.052 44.101 110.038 46.1306 110.229C49.421 110.713 52.781 110.196 55.7742 108.746C58.8333 107.475 61.4346 105.304 63.2335 102.523C65.8966 98.6363 69.6139 95.5912 73.9486 93.7445C78.1892 91.7148 82.9269 90.9561 87.5896 91.5603C89.2871 91.7733 91.0057 91.7597 92.6999 91.5191L104.857 67.8223ZM45.4713 118.43C43.5207 118.213 41.5491 118.283 39.6192 118.636L35.292 203.78L88.4551 99.885L88.3403 99.8762H88.3402H88.3402H88.3401C87.8482 99.8381 87.3892 99.8026 86.9303 99.8026C83.6572 99.2994 80.3083 99.8022 77.3279 101.245C74.2548 102.531 71.6407 104.715 69.8274 107.509C67.1771 111.381 63.4729 114.413 59.1535 116.246C54.905 118.299 50.1471 119.059 45.4713 118.43ZM226.679 233.658L242.587 229.372L244.73 237.326L204.919 248L202.776 240.046L218.725 235.76L215.634 224.262L135.189 67.0393C134.912 66.492 134.762 65.8895 134.747 65.2767C134.733 64.6634 134.855 64.0547 135.106 63.4951C135.35 62.9329 135.717 62.4335 136.181 62.0337C136.645 61.634 137.193 61.3447 137.785 61.1872L209.452 41.9826C210.048 41.8231 210.673 41.8 211.279 41.9137C211.885 42.0279 212.458 42.2768 212.955 42.6419C213.445 43.0124 213.85 43.4839 214.141 44.0242C214.433 44.5645 214.605 45.1612 214.645 45.774L223.588 222.119L226.679 233.658ZM144.874 67.8223L156.99 91.5191C158.684 91.7597 160.403 91.7733 162.1 91.5603C166.763 90.9561 171.501 91.7148 175.741 93.7445C180.075 95.5912 183.793 98.6363 186.456 102.523C188.255 105.304 190.856 107.475 193.916 108.746C196.908 110.196 200.269 110.713 203.559 110.229C205.588 110.038 207.632 110.052 209.658 110.27L206.65 51.2552L144.874 67.8223ZM161.349 99.8762L161.235 99.885L214.398 203.78L210.071 118.636C208.127 118.282 206.141 118.213 204.177 118.43C199.515 119.056 194.771 118.296 190.536 116.246C186.216 114.413 182.512 111.381 179.862 107.509C178.049 104.715 175.435 102.531 172.362 101.245C169.381 99.8022 166.033 99.2994 162.76 99.8026C162.3 99.8026 161.841 99.8381 161.349 99.8762ZM76.5306 43.7131C68.6839 35.442 59.3214 28.7544 48.9517 24.0141C35.3712 17.8579 20.4794 15.1539 5.60132 16.1427L5.06557 7.90032C21.3062 6.82679 37.5604 9.78571 52.3805 16.5136C63.7039 21.6933 73.9277 28.9975 82.4981 38.03L76.5306 43.7131Z" fill="#CE2127"/>
</svg>
