<svg width="17" height="16" viewBox="0 0 17 16" fill="none" xmlns="http://www.w3.org/2000/svg">
<path d="M7.42118 0.690984C7.72053 -0.230327 9.02394 -0.230329 9.3233 0.690982L10.5051 4.32827C10.639 4.74029 11.023 5.01925 11.4562 5.01925H15.2806C16.2494 5.01925 16.6521 6.25887 15.8684 6.82827L12.7744 9.07624C12.4239 9.33088 12.2772 9.78225 12.4111 10.1943L13.5929 13.8316C13.8923 14.7529 12.8378 15.519 12.0541 14.9496L8.96003 12.7016C8.60954 12.447 8.13494 12.447 7.78445 12.7016L4.69039 14.9496C3.90668 15.519 2.8522 14.7529 3.15155 13.8316L4.33338 10.1943C4.46725 9.78225 4.32059 9.33088 3.97011 9.07624L0.876046 6.82827C0.0923322 6.25887 0.495107 5.01925 1.46383 5.01925H5.2883C5.72153 5.01925 6.10548 4.74029 6.23936 4.32827L7.42118 0.690984Z" fill="#CE2127"/>
</svg>
