<svg width="223" height="223" viewBox="0 0 223 223" fill="none" xmlns="http://www.w3.org/2000/svg">
<path d="M102.789 63.5898C114.797 63.5898 124.566 53.8205 124.566 41.8125C124.566 29.8045 114.797 20.0352 102.789 20.0352C90.781 20.0352 81.0117 29.8045 81.0117 41.8125C81.0117 53.8205 90.781 63.5898 102.789 63.5898ZM102.789 28.7461C109.994 28.7461 115.855 34.6077 115.855 41.8125C115.855 49.0173 109.994 54.8789 102.789 54.8789C95.5842 54.8789 89.7227 49.0173 89.7227 41.8125C89.7227 34.6077 95.5842 28.7461 102.789 28.7461Z" fill="#CE2127"/>
<path d="M63.5898 76.6562C73.1963 76.6562 81.0117 68.8408 81.0117 59.2344C81.0117 49.628 73.1963 41.8125 63.5898 41.8125C53.9834 41.8125 46.168 49.628 46.168 59.2344C46.168 68.8408 53.9834 76.6562 63.5898 76.6562ZM63.5898 50.5234C68.3931 50.5234 72.3008 54.4312 72.3008 59.2344C72.3008 64.0376 68.3931 67.9453 63.5898 67.9453C58.7866 67.9453 54.8789 64.0376 54.8789 59.2344C54.8789 54.4312 58.7866 50.5234 63.5898 50.5234Z" fill="#CE2127"/>
<path d="M28.3105 94.0781C37.677 94.0781 45.2969 86.4582 45.2969 77.0918C45.2969 67.7254 37.677 60.1055 28.3105 60.1055C18.9441 60.1055 11.3242 67.7254 11.3242 77.0918C11.3242 86.4582 18.9441 94.0781 28.3105 94.0781ZM28.3105 68.8164C32.8738 68.8164 36.5859 72.5286 36.5859 77.0918C36.5859 81.655 32.8738 85.3672 28.3105 85.3672C23.7473 85.3672 20.0352 81.655 20.0352 77.0918C20.0352 72.5286 23.7473 68.8164 28.3105 68.8164Z" fill="#CE2127"/>
<path d="M211.676 76.6562H202.965V63.5898C202.965 61.1843 201.014 59.2344 198.609 59.2344H168.121V50.5234C168.121 48.1179 166.171 46.168 163.766 46.168C161.361 46.168 159.41 48.1179 159.41 50.5234C159.41 60.6669 159.41 62.893 159.41 72.3008H81.0117C72.9088 72.3008 66.0803 77.8614 64.1412 85.3672H54.8789C45.2725 85.3672 37.457 93.1826 37.457 102.789H28.7461C19.1397 102.789 11.3242 110.605 11.3242 120.211V172.477C11.3242 180.579 16.8848 187.408 24.3906 189.347C24.3906 193.543 24.3906 202.533 24.3906 207.32H11.3242C8.91869 207.32 6.96875 209.271 6.96875 211.676C6.96875 214.081 8.91869 216.031 11.3242 216.031C23.3209 216.031 205.211 216.031 211.676 216.031C214.081 216.031 216.031 214.081 216.031 211.676C216.031 209.271 214.081 207.32 211.676 207.32H168.121V94.0781H176.832V107.145C176.832 109.55 178.782 111.5 181.188 111.5H211.676C214.081 111.5 216.031 109.55 216.031 107.145V81.0117C216.031 78.6062 214.081 76.6562 211.676 76.6562ZM33.1016 133.277C33.1016 130.872 31.1516 128.922 28.7461 128.922C26.3406 128.922 24.3906 130.872 24.3906 133.277V180.009C21.7913 178.5 20.0352 175.693 20.0352 172.477V120.211C20.0352 115.408 23.9429 111.5 28.7461 111.5H37.457V155.055C37.457 163.158 43.0177 169.987 50.5234 171.925V207.32H33.1016C33.1016 162.38 33.1016 175.552 33.1016 133.277ZM59.2344 124.566C59.2344 122.161 57.2844 120.211 54.8789 120.211C52.4734 120.211 50.5234 122.161 50.5234 124.566V162.587C47.9241 161.078 46.168 158.271 46.168 155.055V102.789C46.168 97.9859 50.0757 94.0781 54.8789 94.0781H63.5898V141.988C63.5898 150.091 69.1505 156.92 76.6562 158.859V207.32H59.2344C59.2344 205.726 59.2344 126.844 59.2344 124.566ZM107.145 207.32V155.055C107.145 152.65 105.195 150.699 102.789 150.699C100.384 150.699 98.4336 152.65 98.4336 155.055V207.32H85.3672C85.3672 204.529 85.3672 101.425 85.3672 98.4336C85.3672 96.0281 83.4172 94.0781 81.0117 94.0781C78.6062 94.0781 76.6562 96.0281 76.6562 98.4336V149.521C74.0569 148.011 72.3008 145.204 72.3008 141.988V89.7227C72.3008 84.9194 76.2085 81.0117 81.0117 81.0117H158.241C156.732 83.6137 153.917 85.3672 150.699 85.3672H124.566C122.161 85.3672 120.211 87.3171 120.211 89.7227V207.32H107.145ZM128.922 207.32V94.0781H150.699C153.871 94.0781 156.845 93.2218 159.41 91.7344V207.32H128.922ZM168.121 67.9453H194.254C194.254 73.2381 194.254 80.1855 194.254 85.3672C191.092 85.3672 171.304 85.3672 168.121 85.3672V67.9453ZM207.32 102.789H185.543V94.0781H198.609C201.014 94.0781 202.965 92.1282 202.965 89.7227V85.3672H207.32V102.789Z" fill="#CE2127"/>
</svg>
