<svg width="364" height="364" viewBox="0 0 364 364" fill="none" xmlns="http://www.w3.org/2000/svg">
<path d="M233.324 138.683L123.396 226.043C121.212 227.863 120.484 231.503 122.668 233.687C123.76 235.143 125.216 235.871 127.036 235.871C128.128 235.871 129.584 235.507 130.312 234.779L240.24 147.419C242.424 145.599 243.152 141.959 240.968 139.775C239.148 137.227 235.872 136.863 233.324 138.683Z" fill="#CE2127"/>
<path d="M152.88 177.632C154.336 177.632 155.792 177.632 157.248 177.268C172.172 175.084 182.728 160.888 180.18 145.6C179.088 138.32 175.084 131.768 169.26 127.4C163.436 123.032 156.156 121.212 148.876 122.304C141.596 123.396 135.044 127.4 130.676 133.224C126.308 139.048 124.488 146.328 125.58 153.608C127.764 167.804 139.776 177.632 152.88 177.632ZM150.332 133.588C151.06 133.588 152.152 133.224 152.88 133.224C160.888 133.224 168.168 139.048 169.26 147.42C170.716 156.52 164.528 164.892 155.428 166.348C146.328 167.804 137.956 161.616 136.5 152.516C135.044 143.416 141.596 135.044 150.332 133.588Z" fill="#CE2127"/>
<path d="M211.12 195.832C195.832 195.832 183.456 208.208 183.456 223.496C183.456 238.784 195.832 251.16 211.12 251.16C226.408 251.16 238.784 238.784 238.784 223.496C238.42 208.208 226.044 195.832 211.12 195.832ZM211.12 239.876C202.02 239.876 194.376 232.232 194.376 223.132C194.376 214.032 202.02 206.388 211.12 206.388C220.22 206.388 227.864 214.032 227.864 223.132C227.5 232.596 220.22 239.876 211.12 239.876Z" fill="#CE2127"/>
<path d="M347.256 183.092C347.256 182.728 347.62 182 347.62 181.636C347.62 165.984 331.24 157.976 317.044 151.06C306.852 145.964 295.932 140.504 293.02 133.952C290.108 127.036 294.112 115.752 298.116 105.196C303.576 90.2716 309.036 74.9836 298.844 64.7916C288.652 54.5996 274.092 58.2396 259.532 61.5156C249.34 63.6996 238.784 66.2476 231.868 63.3356C224.952 60.4236 219.128 51.3236 213.668 42.5876C205.66 30.2116 196.924 16.0156 181.636 16.0156C166.348 16.0156 157.612 30.2116 149.968 42.9516C144.508 52.0516 139.048 61.1516 132.132 64.0636C125.216 66.9756 114.296 64.4276 104.104 61.8796C89.544 58.2396 74.62 54.5996 64.792 64.4276C54.6 74.6196 59.696 89.9076 64.428 104.832C68.068 115.752 71.344 126.672 68.432 133.952C65.52 140.868 55.328 145.964 45.5 151.06C31.668 158.34 16.016 166.348 16.016 181.636C16.016 182 16.016 182.728 16.38 183.092C16.38 183.456 16.016 184.184 16.016 184.548C16.016 199.836 31.668 208.208 45.5 215.124C55.328 220.22 65.52 225.316 68.432 232.232C71.344 239.148 67.704 250.432 64.428 261.352C59.696 276.276 54.6 291.564 64.792 301.756C74.984 311.948 89.908 307.944 104.104 304.304C114.296 301.756 125.216 299.208 132.132 302.12C139.048 305.032 144.508 314.132 149.968 323.232C157.612 335.972 166.348 350.168 181.636 350.168C196.924 350.168 206.024 335.972 213.668 323.596C219.128 314.86 224.952 305.76 231.868 302.848C239.148 299.936 249.34 302.12 259.532 304.668C273.728 307.944 288.652 311.584 298.844 301.392C309.036 291.2 303.576 275.912 298.116 260.988C294.112 250.068 290.108 239.148 293.02 232.232C295.932 225.316 306.488 220.22 317.044 215.124C331.24 207.844 347.62 199.836 347.62 184.548C347.62 183.82 347.256 183.456 347.256 183.092ZM311.948 205.296C299.936 211.484 287.196 217.672 282.828 228.228C278.096 239.148 283.192 252.252 287.56 264.992C291.928 277.004 296.296 288.652 290.836 293.748C285.012 299.572 273.728 297.024 261.716 294.112C249.704 291.2 237.692 288.652 227.136 293.02C216.944 297.388 210.392 307.58 204.204 317.772C197.288 328.692 190.736 339.248 181.272 339.248C172.172 339.248 165.62 328.692 158.704 317.408C152.516 306.852 145.964 296.296 135.772 291.928C125.216 287.56 112.84 290.472 100.828 293.748C88.816 296.66 77.532 299.572 71.708 294.112C66.248 288.652 69.888 277.004 73.892 264.992C77.896 252.252 82.264 239.148 77.532 228.592C73.164 218.036 61.152 211.848 49.504 206.024C37.492 199.836 26.208 194.012 26.208 184.912C26.208 184.548 26.208 183.82 25.844 183.456C25.844 183.092 26.208 182.364 26.208 182C26.208 173.264 37.492 167.44 49.504 160.888C61.152 155.064 73.164 148.876 77.532 138.32C81.9 127.4 77.896 114.296 73.892 101.92C69.888 89.5436 66.248 77.8956 71.708 72.7996C77.532 66.9756 88.816 69.8876 100.828 73.1636C112.84 76.0756 125.216 79.3516 135.772 74.9836C145.964 70.6156 152.516 60.0596 158.704 49.5036C165.62 38.2196 171.808 27.6636 181.272 27.6636C190.736 27.6636 197.288 38.2196 204.204 49.1396C210.756 59.3316 217.308 69.5236 227.136 73.8916C237.692 78.2596 249.704 75.3476 261.716 72.7996C273.728 69.8876 285.012 67.3396 290.836 73.1636C296.296 78.2596 291.928 89.9076 287.56 101.92C282.828 114.66 278.096 127.764 282.828 138.684C287.196 149.24 299.936 155.428 311.948 161.616C324.688 167.804 336.336 173.992 336.336 182.728C336.336 183.092 336.336 183.82 336.7 184.184C336.7 184.548 336.336 185.276 336.336 185.64C336.7 192.92 324.688 199.108 311.948 205.296Z" fill="#CE2127"/>
</svg>
