<svg width="56" height="69" viewBox="0 0 56 69" fill="none" xmlns="http://www.w3.org/2000/svg">
<path opacity="0.2" fill-rule="evenodd" clip-rule="evenodd" d="M26.8375 9.51724C26.2845 6.80101 23.9037 4.75862 21.0126 4.75862C17.7287 4.75862 15.0666 7.41255 15.0666 10.7269V31.8037C10.4163 27.4529 5.10747 24.2078 1.72616 27.5904C-3.00041 32.3187 6.92595 41.5963 14.688 55.743C20.0656 65.544 27.8794 69 35.2833 69C46.4487 69 55.5 59.9453 55.5 48.7759V34.5341C55.5 31.2488 52.8607 28.5855 49.5539 28.5855C48.2153 28.5855 46.98 29.0241 45.9862 29.7678V29.7357C45.9862 26.4537 43.347 23.7931 40.0402 23.7931C38.5315 23.7931 37.1541 24.3594 36.1058 25.2876C35.2711 23.0257 33.1011 21.4138 30.5264 21.4138C29.1878 21.4138 27.9525 21.8547 26.9587 22.5996V11.8966H43.7267L35.9968 19.6293L37.7806 21.4138L48.4836 10.7069L37.7806 0L35.9968 1.78448L43.7267 9.51724H26.8375ZM35.2803 66.6207C45.1337 66.6207 53.1216 58.0903 53.1216 48.7759C53.1216 48.7759 53.1216 54.2798 53.1216 48.7759V39.8515V34.504C53.1216 32.5307 51.538 30.931 49.5539 30.931C47.5835 30.931 45.9862 32.528 45.9862 34.504V35.6897H43.6078V29.7567C43.6078 27.7772 42.0243 26.1724 40.0402 26.1724C38.0698 26.1724 36.4725 27.7702 36.4725 29.7567V33.3103H34.0941V27.3774C34.0941 25.3978 32.5105 23.7931 30.5264 23.7931C28.556 23.7931 26.9587 25.3909 26.9587 27.3774V35.6897H24.5803V10.7194C24.5803 8.74139 22.9967 7.13793 21.0126 7.13793C19.0423 7.13793 17.445 8.72524 17.445 10.7194V37.5931C12.5492 32.3576 6.10372 26.5986 3.46223 29.2553C0.876467 31.856 7.53966 39.0224 16.8441 54.6839C21.0364 61.7405 26.341 66.6196 35.2803 66.6207Z" fill="black"/>
</svg>
